<svg width="16" height="16" viewBox="0 0 16 16" fill="none" xmlns="http://www.w3.org/2000/svg">
<path opacity="0.4" d="M8.00356 0C3.5861 -1.74557e-06 0.00394223 3.5798 1.55988e-05 7.99827C-0.00253403 9.28664 0.307507 10.5564 0.903527 11.6985C0.960442 11.8053 1.01024 11.912 1.06716 12.0116C1.19477 12.2576 1.22033 12.5439 1.1383 12.8086C0.910048 13.4176 0.719966 14.0403 0.569157 14.673C0.569157 14.9861 0.661642 15.1711 0.996013 15.1711C1.60366 15.0347 2.20238 14.8613 2.78881 14.6516C3.04361 14.5851 3.31307 14.6026 3.55715 14.7014C3.77769 14.8153 3.97689 14.979 4.19743 15.0786H4.26858C6.7489 16.3844 9.73145 16.2973 12.1313 14.8489C14.5312 13.4005 15.9987 10.8018 16 7.99827C15.9961 3.58257 12.4182 0.00392332 8.00356 0Z" fill="#7C8DB5" fill-opacity="0.72"/>
<path d="M4.20871 9.22783C3.65546 9.22783 3.20697 8.77933 3.20697 8.22609C3.20697 7.67284 3.65546 7.22435 4.20871 7.22435C4.76195 7.22435 5.21045 7.67284 5.21045 8.22609C5.21045 8.77933 4.76195 9.22783 4.20871 9.22783Z" fill="#7C8DB5" fill-opacity="0.72"/>
<path d="M7.82607 9.22783C7.55983 9.2297 7.30394 9.12476 7.11568 8.93649C6.92741 8.74822 6.82247 8.49233 6.82433 8.22609C6.82433 7.82092 7.0684 7.45565 7.44273 7.3006C7.81705 7.14555 8.24792 7.23126 8.53441 7.51775C8.82091 7.80425 8.90661 8.23511 8.75156 8.60944C8.59651 8.98376 8.23124 9.22783 7.82607 9.22783Z" fill="#7C8DB5" fill-opacity="0.72"/>
<path d="M11.4365 9.22783C10.8833 9.22783 10.4348 8.77933 10.4348 8.22609C10.4348 7.67284 10.8833 7.22435 11.4365 7.22435C11.9898 7.22435 12.4383 7.67284 12.4383 8.22609C12.4383 8.77933 11.9898 9.22783 11.4365 9.22783Z" fill="#7C8DB5" fill-opacity="0.72"/>
</svg>
