<svg width="18" height="18" viewBox="0 0 18 18" fill="none" xmlns="http://www.w3.org/2000/svg">
<path d="M16.3584 5.67501L10.9 1.30834C9.83338 0.458338 8.16672 0.450005 7.10838 1.30001L1.65005 5.67501C0.866717 6.30001 0.391717 7.55 0.558384 8.53334L1.60838 14.8167C1.85005 16.225 3.15838 17.3333 4.58338 17.3333H13.4167C14.825 17.3333 16.1584 16.2 16.4 14.8083L17.45 8.52501C17.6 7.55001 17.125 6.30001 16.3584 5.67501ZM9.62505 14C9.62505 14.3417 9.34172 14.625 9.00005 14.625C8.65838 14.625 8.37505 14.3417 8.37505 14V11.5C8.37505 11.1583 8.65838 10.875 9.00005 10.875C9.34172 10.875 9.62505 11.1583 9.62505 11.5V14Z" fill="#7C8DB5"  fill-opacity="0.72"/>
</svg>
