<svg width="18" height="19" viewBox="0 0 18 19" fill="none" xmlns="http://www.w3.org/2000/svg">
<path opacity="0.55" d="M14.0083 12.5084C13.1 12.45 12.1667 12.7833 11.475 13.475C10.175 14.775 10.175 16.8834 11.475 18.1917C11.9167 18.6334 12.4583 18.925 13.0333 19.0667C13.35 19.15 13.6833 19.175 14.0167 19.1583C14.8083 19.125 15.5833 18.8084 16.1917 18.2C17.05 17.3417 17.3417 16.1333 17.0667 15.0417C16.9333 14.4667 16.6333 13.925 16.1917 13.4833C15.5917 12.875 14.8083 12.55 14.0083 12.5084ZM15.7 15.8167C15.7 15.9917 15.6333 16.1417 15.5167 16.2584C15.4 16.375 15.25 16.4417 15.075 16.4417H14.4583V17.0917C14.4583 17.2667 14.3917 17.4167 14.275 17.5333C14.1583 17.65 14.0083 17.7167 13.8333 17.7167C13.4917 17.7167 13.2083 17.4334 13.2083 17.0917V16.4417H12.5833C12.2417 16.4417 11.9583 16.1583 11.9583 15.8167C11.9583 15.475 12.2417 15.1917 12.5833 15.1917H13.2083V14.6C13.2083 14.2584 13.4917 13.975 13.8333 13.975C14.175 13.975 14.4583 14.2584 14.4583 14.6V15.1917H15.075C15.425 15.1917 15.7 15.475 15.7 15.8167Z" fill="#7C8DB5" fill-opacity="0.72"/>
<path opacity="0.72" d="M11.6166 18.3083C11.3666 18.0916 11.15 17.8333 10.9833 17.55C10.675 17.05 10.5 16.4583 10.5 15.8333C10.5 13.9917 11.9916 12.5 13.8333 12.5C14.8166 12.5 15.7083 12.925 16.3083 13.6083C16.3166 13.6167 16.3166 13.625 16.325 13.625C16.325 13.575 16.3333 13.5333 16.3333 13.4917V6.50833C16.3333 3.475 14.525 1.66667 11.4916 1.66667H4.50829C4.27496 1.66667 4.04996 1.67499 3.83329 1.70832C1.20829 1.94999 -0.333374 3.70833 -0.333374 6.50833V13.4917C-0.333374 16.2917 1.20829 18.05 3.83329 18.2917C4.04996 18.325 4.27496 18.3333 4.50829 18.3333H11.4916C11.5416 18.3333 11.5833 18.325 11.6333 18.325C11.6333 18.3167 11.625 18.3166 11.6166 18.3083Z" fill="#7C8DB5" fill-opacity="0.72"/>
<path d="M9.48336 4.41667C9.21669 4.20833 8.73336 4.00834 7.9667 4.21667L5.48336 4.90001C4.74169 5.09168 4.25835 5.71667 4.25835 6.5V7.95833V9.75836C4.06669 9.6917 3.85836 9.64168 3.6417 9.64168C2.60836 9.64168 1.77502 10.4833 1.77502 11.5083C1.77502 12.5333 2.6167 13.375 3.6417 13.375C4.65836 13.375 5.49169 12.55 5.50835 11.5417C5.50835 11.5333 5.5167 11.525 5.5167 11.5167V8.43334L8.82503 7.53333V8.93332C8.63336 8.86665 8.42503 8.81669 8.20003 8.81669C7.1667 8.81669 6.33336 9.65835 6.33336 10.6833C6.33336 11.7167 7.17503 12.55 8.20003 12.55C9.2167 12.55 10.05 11.725 10.0667 10.7083C10.0667 10.7 10.075 10.6917 10.075 10.675V6.70833V5.81666C10.0667 5.18333 9.86669 4.70833 9.48336 4.41667ZM3.63335 12.125C3.29169 12.125 3.0167 11.85 3.0167 11.5083C3.0167 11.1667 3.29169 10.8917 3.63335 10.8917C3.97502 10.8917 4.25003 11.1667 4.25003 11.5083C4.25003 11.85 3.97502 12.125 3.63335 12.125ZM8.19169 11.2917C7.85002 11.2917 7.57503 11.0167 7.57503 10.675C7.57503 10.3333 7.85002 10.0583 8.19169 10.0583C8.53336 10.0583 8.80836 10.3333 8.80836 10.675C8.80836 11.0167 8.53336 11.2917 8.19169 11.2917Z" fill="white"/>
</svg>
