<svg width="30" height="16" viewBox="0 0 30 16" fill="none" xmlns="http://www.w3.org/2000/svg">
<rect y="0.5" width="30" height="15" rx="5" fill="#7C8DB5" fill-opacity="0.72"/>
<path d="M7.46875 10.5V6.54688H7.50391L10.3047 10.5H11.1719V4.86328H10.2031V8.8125H10.168L7.37109 4.86328H6.49609V10.5H7.46875ZM16.3164 9.64844H13.6758V8.03906H16.1719V7.23828H13.6758V5.71484H16.3164V4.86328H12.668V10.5H16.3164V9.64844ZM20.9766 6.42188H21.0156L22.168 10.5H23.1172L24.6289 4.86328H23.582L22.6055 9.13281H22.5742L21.4414 4.86328H20.5508L19.418 9.13281H19.3867L18.4102 4.86328H17.3633L18.875 10.5H19.8242L20.9766 6.42188Z" fill="white"/>
</svg>
